<svg width="67" height="68" viewBox="0 0 67 68" fill="none" xmlns="http://www.w3.org/2000/svg">
<path d="M0 0V67.9874H44.9449C44.9449 67.9874 50.9483 68.2113 55.0254 66.7716C61.2856 64.532 67 62.3564 67 62.3564V0H0Z" fill="#C46210"/>
<path d="M50 44.589V35.1411C50 35.1411 42.4879 31.6196 38.2759 30.7178V15H34.0204V43.6442C35.41 43.4724 36.8863 43.1288 38.2759 42.8282V34.9264C41.5326 35.6135 45.788 37.546 45.788 37.546V42.3129C39.3614 45.362 33.0217 45.8344 33.0217 45.8344C33.0217 45.8344 26.682 45.319 20.2554 42.3129V37.5031C20.2554 37.5031 24.5109 35.6135 27.7676 34.8834V42.7853C29.1137 43.0859 30.6335 43.3865 32.023 43.6012V15H27.7241V30.7178C23.5121 31.6626 16 35.1411 16 35.1411V44.589C26.0307 49.5276 33.0217 49.9571 33.0217 49.9571C33.0217 49.9571 40.0128 49.5706 50 44.589Z" fill="white"/>
</svg>
